<svg width="33" height="33" viewBox="0 0 33 33" fill="none" xmlns="http://www.w3.org/2000/svg">
<g filter="url(#filter0_d_0_169)">
<path d="M12.5 7.598V5.828C13.1672 5.5921 13.7296 5.12793 14.0876 4.51752C14.4457 3.90711 14.5765 3.18976 14.4568 2.49227C14.3371 1.79477 13.9747 1.16204 13.4337 0.705895C12.8926 0.249753 12.2077 -0.000427246 11.5 -0.000427246C10.7923 -0.000427246 10.1074 0.249753 9.56635 0.705895C9.02528 1.16204 8.66288 1.79477 8.54321 2.49227C8.42354 3.18976 8.5543 3.90711 8.91237 4.51752C9.27045 5.12793 9.83279 5.5921 10.5 5.828V8.012C10.5001 8.27719 10.6055 8.53151 10.793 8.719L13.5 11.426V23.012C13.5 23.2772 13.6054 23.5316 13.7929 23.7191C13.9804 23.9066 14.2348 24.012 14.5 24.012C14.7652 24.012 15.0196 23.9066 15.2071 23.7191C15.3946 23.5316 15.5 23.2772 15.5 23.012V11.012C15.4999 10.7468 15.3946 10.4925 15.207 10.305L12.5 7.598Z" fill="#722ED1"/>
<path d="M8.50001 16.598V14.828C9.16722 14.5921 9.72956 14.1279 10.0876 13.5175C10.4457 12.9071 10.5765 12.1898 10.4568 11.4923C10.3371 10.7948 9.97474 10.162 9.43367 9.70589C8.8926 9.24975 8.20769 8.99957 7.50001 8.99957C6.79232 8.99957 6.10741 9.24975 5.56635 9.70589C5.02528 10.162 4.66288 10.7948 4.54321 11.4923C4.42354 12.1898 4.5543 12.9071 4.91237 13.5175C5.27045 14.1279 5.83279 14.5921 6.50001 14.828V17.012C6.50006 17.2772 6.60546 17.5315 6.79301 17.719L9.50001 20.426V23.012C9.50001 23.2772 9.60536 23.5316 9.7929 23.7191C9.98044 23.9066 10.2348 24.012 10.5 24.012C10.7652 24.012 11.0196 23.9066 11.2071 23.7191C11.3946 23.5316 11.5 23.2772 11.5 23.012V20.012C11.4999 19.7468 11.3946 19.4925 11.207 19.305L8.50001 16.598Z" fill="#722ED1"/>
<path d="M22.5 8.012V5.828C23.1672 5.5921 23.7296 5.12793 24.0876 4.51752C24.4457 3.90711 24.5765 3.18976 24.4568 2.49227C24.3371 1.79477 23.9747 1.16204 23.4337 0.705895C22.8926 0.249753 22.2077 -0.000427246 21.5 -0.000427246C20.7923 -0.000427246 20.1074 0.249753 19.5663 0.705895C19.0253 1.16204 18.6629 1.79477 18.5432 2.49227C18.4235 3.18976 18.5543 3.90711 18.9124 4.51752C19.2705 5.12793 19.8328 5.5921 20.5 5.828V7.598L17.793 10.305C17.6055 10.4925 17.5001 10.7468 17.5 11.012V23.012C17.5 23.2772 17.6054 23.5316 17.7929 23.7191C17.9804 23.9066 18.2348 24.012 18.5 24.012C18.7652 24.012 19.0196 23.9066 19.2071 23.7191C19.3947 23.5316 19.5 23.2772 19.5 23.012V11.426L22.207 8.719C22.3946 8.53151 22.5 8.27719 22.5 8.012Z" fill="#722ED1"/>
<path d="M28.5 12.012C28.5023 11.4615 28.353 10.9209 28.0686 10.4496C27.7842 9.97824 27.3755 9.59424 26.8874 9.33965C26.3993 9.08506 25.8505 8.96968 25.3012 9.00617C24.7519 9.04265 24.2232 9.22959 23.7731 9.5465C23.3229 9.86341 22.9686 10.2981 22.749 10.8029C22.5294 11.3077 22.453 11.8633 22.5281 12.4086C22.6031 12.954 22.8268 13.4682 23.1746 13.895C23.5224 14.3217 23.981 14.6445 24.5 14.828V16.598L21.793 19.305C21.6055 19.4925 21.5001 19.7468 21.5 20.012V23.012C21.5 23.2772 21.6054 23.5316 21.7929 23.7191C21.9804 23.9066 22.2348 24.012 22.5 24.012C22.7652 24.012 23.0196 23.9066 23.2071 23.7191C23.3947 23.5316 23.5 23.2772 23.5 23.012V20.426L26.207 17.719C26.3946 17.5315 26.5 17.2772 26.5 17.012V14.828C27.0829 14.6219 27.5879 14.2408 27.9459 13.7367C28.3039 13.2326 28.4974 12.6303 28.5 12.012Z" fill="#722ED1"/>
</g>
<defs>
<filter id="filter0_d_0_169" x="0.5" y="-0.000427246" width="32" height="32.0125" filterUnits="userSpaceOnUse" color-interpolation-filters="sRGB">
<feFlood flood-opacity="0" result="BackgroundImageFix"/>
<feColorMatrix in="SourceAlpha" type="matrix" values="0 0 0 0 0 0 0 0 0 0 0 0 0 0 0 0 0 0 127 0" result="hardAlpha"/>
<feOffset dy="4"/>
<feGaussianBlur stdDeviation="2"/>
<feComposite in2="hardAlpha" operator="out"/>
<feColorMatrix type="matrix" values="0 0 0 0 0 0 0 0 0 0 0 0 0 0 0 0 0 0 0.25 0"/>
<feBlend mode="normal" in2="BackgroundImageFix" result="effect1_dropShadow_0_169"/>
<feBlend mode="normal" in="SourceGraphic" in2="effect1_dropShadow_0_169" result="shape"/>
</filter>
</defs>
</svg>
