<svg width="17" height="17" viewBox="0 0 17 17" fill="none" xmlns="http://www.w3.org/2000/svg">
<path d="M15.1191 16C15.3533 16 15.5779 15.907 15.7435 15.7414C15.909 15.5758 16.0021 15.3512 16.0021 15.117V0.883C16.0021 0.648814 15.909 0.424219 15.7435 0.258625C15.5779 0.0930301 15.3533 0 15.1191 0L0.885075 0C0.650889 0 0.426295 0.0930301 0.2607 0.258625C0.0951053 0.424219 0.0020752 0.648814 0.0020752 0.883L0.0020752 15.117C0.0020752 15.3512 0.0951053 15.5758 0.2607 15.7414C0.426295 15.907 0.650889 16 0.885075 16H15.1191Z" fill="#485A96"/>
<path d="M11.0421 16V9.80704H13.1221L13.4331 7.39204H11.0421V5.84804C11.0421 5.14804 11.2361 4.67204 12.2421 4.67204H13.5211V2.51204C12.9024 2.44485 12.2804 2.41147 11.6581 2.41204C11.2349 2.38135 10.8101 2.44359 10.4134 2.59439C10.0168 2.7452 9.65796 2.98091 9.36204 3.28502C9.06612 3.58914 8.84029 3.95429 8.70037 4.35488C8.56045 4.75547 8.50984 5.18182 8.55207 5.60404V7.38504H6.46707V9.80704H8.55207V16.007H11.0461L11.0421 16Z" fill="white"/>
</svg>
