<svg width="424" height="24" viewBox="0 0 424 24" fill="none" xmlns="http://www.w3.org/2000/svg">
<path d="M174.734 16C174.651 15.75 174.51 15.6146 174.312 15.5938H173.234V7.03125H173.891C174.755 7.04167 175.339 7.57292 175.641 8.625L175.984 9.8125H176.438L176.359 6.625H168.484L168.422 9.8125H168.875L169.219 8.625C169.531 7.57292 170.109 7.04167 170.953 7.03125H171.562V15.5938H170.078V16H174.734ZM180.984 15.6094H179.844V12.5938C179.844 11.5104 180.12 10.724 180.672 10.2344C180.839 10.0885 180.99 10.0104 181.125 10C181.271 10 181.417 10.125 181.562 10.375C181.74 10.6875 181.917 10.875 182.094 10.9375C182.167 10.9583 182.245 10.9688 182.328 10.9688C182.693 10.9688 182.938 10.7969 183.062 10.4531C183.094 10.3594 183.109 10.2656 183.109 10.1719C183.109 9.68229 182.865 9.375 182.375 9.25C182.26 9.22917 182.146 9.21875 182.031 9.21875C181.406 9.21875 180.844 9.47917 180.344 10C180.115 10.25 179.938 10.5312 179.812 10.8438L179.734 9.32812H177.281V9.71875H178.344V14.7188C178.344 15.1875 178.193 15.4635 177.891 15.5469C177.755 15.5885 177.552 15.6094 177.281 15.6094V16H181.375C181.375 15.7708 181.307 15.6458 181.172 15.625C181.12 15.6146 181.057 15.6094 180.984 15.6094ZM191.25 15.6094H190.578V9.32812H188V9.71875H189.062V13.3281C189.031 14.2135 188.719 14.8385 188.125 15.2031C187.885 15.349 187.641 15.4219 187.391 15.4219C186.641 15.4219 186.203 15.0208 186.078 14.2188C186.057 14.0729 186.047 13.9271 186.047 13.7812V9.32812H183.469V9.71875H184.547V13.5312C184.557 15.2708 185.302 16.1458 186.781 16.1562C187.594 16.1562 188.245 15.8229 188.734 15.1562C188.88 14.9583 189 14.75 189.094 14.5312L189.203 16H191.641C191.641 15.7708 191.573 15.6458 191.438 15.625C191.385 15.6146 191.323 15.6094 191.25 15.6094ZM195.016 15.7344C195.724 15.7344 196.177 15.5104 196.375 15.0625C196.438 14.9271 196.469 14.7865 196.469 14.6406C196.469 14.1719 196.141 13.7708 195.484 13.4375C195.349 13.3646 195.125 13.2604 194.812 13.125C193.99 12.7708 193.443 12.4427 193.172 12.1406C192.88 11.8073 192.734 11.4167 192.734 10.9688C192.734 10.1875 193.161 9.64583 194.016 9.34375C194.401 9.20833 194.823 9.14062 195.281 9.14062C196.031 9.14062 196.646 9.28646 197.125 9.57812C197.125 9.27604 197.203 9.10417 197.359 9.0625C197.411 9.05208 197.469 9.04688 197.531 9.04688V11H197.094C197.052 10.0417 196.526 9.55729 195.516 9.54688C194.786 9.54688 194.333 9.77083 194.156 10.2188C194.115 10.3333 194.094 10.4531 194.094 10.5781C194.094 11.026 194.411 11.4115 195.047 11.7344C195.182 11.7969 195.401 11.8906 195.703 12.0156C196.536 12.3698 197.089 12.6979 197.359 13C197.672 13.3542 197.828 13.7656 197.828 14.2344C197.828 15.0885 197.38 15.6667 196.484 15.9688C196.12 16.0938 195.714 16.1562 195.266 16.1562C194.443 16.1458 193.74 15.9688 193.156 15.625C193.156 15.8958 193.089 16.0521 192.953 16.0938C192.891 16.1042 192.818 16.1094 192.734 16.1094V13.7344H193.219C193.24 15.0573 193.839 15.724 195.016 15.7344ZM198.672 9.75H199.766V13.9531C199.766 15.3177 200.333 16.0521 201.469 16.1562C201.562 16.1667 201.651 16.1719 201.734 16.1719C202.62 16.1719 203.208 15.7344 203.5 14.8594C203.552 14.7031 203.594 14.5417 203.625 14.375L203.203 14.2969C202.974 15.224 202.599 15.6927 202.078 15.7031C201.547 15.6823 201.276 15.2812 201.266 14.5V9.75H203.531V9.35938H201.266V7.54688L199.766 7.875V9.35938H198.672V9.75ZM207.625 9.53125C208.292 9.53125 208.714 9.86979 208.891 10.5469C208.943 10.7448 208.969 10.9479 208.969 11.1562C208.969 11.6667 208.755 11.9792 208.328 12.0938C208.089 12.1562 207.75 12.1771 207.312 12.1562L205.922 12.125C205.964 10.7917 206.349 9.96354 207.078 9.64062C207.245 9.56771 207.427 9.53125 207.625 9.53125ZM210.422 14.4531L210.047 14.3281C209.703 15.0469 209.172 15.4896 208.453 15.6562C208.286 15.6979 208.12 15.7188 207.953 15.7188C206.651 15.7188 205.974 14.6771 205.922 12.5938C205.922 12.5833 205.922 12.5729 205.922 12.5625L207.625 12.5938C209.052 12.625 209.943 12.4531 210.297 12.0781C210.464 11.8802 210.547 11.6302 210.547 11.3281C210.547 10.5469 210.156 9.95312 209.375 9.54688C208.854 9.27604 208.266 9.14062 207.609 9.14062C206.37 9.14062 205.448 9.61458 204.844 10.5625C204.458 11.1667 204.266 11.8698 204.266 12.6719C204.266 14.0573 204.771 15.0521 205.781 15.6562C206.333 15.9896 206.958 16.1562 207.656 16.1562C208.833 16.1562 209.682 15.7344 210.203 14.8906C210.286 14.7448 210.359 14.599 210.422 14.4531ZM216.953 16H219.422C219.422 15.7604 219.354 15.6302 219.219 15.6094C219.167 15.599 219.109 15.5938 219.047 15.5938H218.281L218.266 5.84375H215.297V6.23438H216.766V9.90625C216.255 9.38542 215.589 9.125 214.766 9.125C213.682 9.125 212.839 9.57812 212.234 10.4844C211.807 11.151 211.594 11.9271 211.594 12.8125C211.594 14.0833 212.005 15.026 212.828 15.6406C213.286 15.9844 213.802 16.1562 214.375 16.1562C215.458 16.1562 216.24 15.6302 216.719 14.5781C216.74 14.526 216.76 14.474 216.781 14.4219L216.953 16ZM213.25 12.625C213.25 11.1771 213.604 10.2344 214.312 9.79688C214.552 9.65104 214.812 9.57812 215.094 9.57812C215.833 9.57812 216.339 10.0208 216.609 10.9062C216.734 11.3125 216.797 11.7865 216.797 12.3281C216.797 13.6823 216.479 14.625 215.844 15.1562C215.573 15.3854 215.266 15.5 214.922 15.5C214.151 15.5 213.641 14.9896 213.391 13.9688C213.297 13.5729 213.25 13.125 213.25 12.625ZM227.641 16.1562C228.599 16.1562 229.385 15.7969 230 15.0781C230.573 14.401 230.859 13.5469 230.859 12.5156C230.859 11.3073 230.51 10.3854 229.812 9.75C229.344 9.34375 228.797 9.14062 228.172 9.14062C227.026 9.14062 226.198 9.70312 225.688 10.8281C225.677 10.849 225.672 10.8646 225.672 10.875V5.84375H223.109V6.25H224.172V14.7031C224.172 15.1615 224.026 15.4375 223.734 15.5312C223.589 15.5729 223.38 15.5938 223.109 15.5938V16H225.266L225.391 14.9375C225.901 15.7396 226.651 16.1458 227.641 16.1562ZM227.578 9.8125C228.464 9.8125 228.99 10.4688 229.156 11.7812C229.188 12.0625 229.203 12.3594 229.203 12.6719C229.203 14.2656 228.812 15.2448 228.031 15.6094C227.844 15.7031 227.641 15.75 227.422 15.75C226.661 15.75 226.141 15.3021 225.859 14.4062C225.734 13.9896 225.672 13.5104 225.672 12.9688C225.672 11.6562 225.979 10.7292 226.594 10.1875C226.885 9.9375 227.214 9.8125 227.578 9.8125ZM233.188 18.4844C233.01 18.4844 232.875 18.3542 232.781 18.0938C232.656 17.75 232.536 17.5417 232.422 17.4688C232.318 17.3958 232.193 17.3594 232.047 17.3594C231.703 17.3594 231.49 17.5156 231.406 17.8281C231.396 17.8802 231.391 17.9323 231.391 17.9844C231.391 18.349 231.609 18.6354 232.047 18.8438C232.286 18.9479 232.552 19 232.844 19C233.688 19 234.406 18.5 235 17.5C235.24 17.1042 235.469 16.6302 235.688 16.0781L238.016 10.2188C238.12 9.9375 238.24 9.78125 238.375 9.75C238.438 9.73958 238.505 9.73438 238.578 9.73438C238.797 9.73438 238.922 9.66667 238.953 9.53125C238.964 9.47917 238.969 9.41146 238.969 9.32812H236.562V9.73438H237.719L235.844 14.4531L233.797 9.73438H234.812V9.32812H231.516V9.73438H232.234L235.141 16.1406C234.599 17.4531 234.078 18.2083 233.578 18.4062C233.453 18.4583 233.323 18.4844 233.188 18.4844Z" fill="#8989A2"/>
<path d="M0 11H144" stroke="#D6D6D6"/>
<path d="M280 11H424" stroke="#D6D6D6"/>
</svg>
